<?xml version="1.0" encoding="UTF-8"?>
<svg id="Layer_1" xmlns="http://www.w3.org/2000/svg" version="1.1" viewBox="0 0 600 600">
  <!-- Generator: Adobe Illustrator 29.6.1, SVG Export Plug-In . SVG Version: 2.1.1 Build 9)  -->
  <rect width="600" height="600" rx="150" ry="150" fill="#6dff8d"/>
  <g id="Logo">
    <path id="o" d="M494.017,290.689c-3.979-6.669-9.495-11.829-16.396-15.339-6.856-3.485-14.673-5.252-23.234-5.252s-16.382,1.767-23.236,5.252c-6.905,3.511-12.422,8.672-16.396,15.339-3.969,6.653-5.981,14.731-5.981,24.009v2.703c0,9.278,2.012,17.356,5.981,24.01,3.975,6.666,9.491,11.826,16.396,15.337,6.854,3.485,14.671,5.252,23.236,5.252s16.379-1.767,23.234-5.252c6.901-3.51,12.418-8.67,16.396-15.337,3.971-6.66,5.983-14.738,5.983-24.011v-2.703c0-9.273-2.013-17.351-5.983-24.009ZM454.387,339.701c-6.128,0-11.045-1.913-15.032-5.848-3.926-3.873-5.917-9.579-5.917-16.959v-1.689c0-7.38,1.99-13.085,5.917-16.958,3.988-3.936,8.905-5.849,15.032-5.849,6.235,0,11.177,1.91,15.107,5.84,3.875,3.875,5.84,9.584,5.84,16.966v1.689c0,7.378-1.99,13.084-5.917,16.959-3.989,3.935-8.906,5.848-15.031,5.848Z" fill="#17181e"/>
    <path id="kt" d="M380.605,272.463v-26.016h-24.664v26.016h-34.712l-.504.562-27.201,30.354h-.597v-65.38h-24.666v121.636h24.666v-33.281h.589l28.89,32.71.504.571h31.996l-2.626-2.837-38.96-42.083,20.327-21.304h22.293v45.613c0,6.184,1.9,11.218,5.647,14.964,3.745,3.747,8.666,5.647,14.625,5.647h25.341v-20.949h-17.908c-1.877,0-3.041-.565-3.041-3.378v-41.897h22.977v-20.948h-22.977Z" fill="#17181e"/>
    <path id="a" d="M252.411,338.687c-1.878,0-3.042-.565-3.042-3.378v-31.254c0-10.94-3.437-19.442-10.216-25.271-6.708-5.764-15.889-8.686-27.287-8.686-7.412,0-13.808,1.156-19.009,3.437-5.229,2.291-9.471,5.344-12.609,9.075-3.112,3.697-5.407,7.842-6.823,12.32l-.5,1.582,1.573.529,19.598,6.588,1.809.608.384-1.869c.711-3.461,2.248-6.314,4.567-8.482,2.254-2.108,5.844-3.177,10.672-3.177,4.907,0,8.48,1.108,10.618,3.293,2.177,2.227,3.235,5.019,3.235,8.532v3.041h-21.287c-6.489,0-12.357,1.036-17.44,3.078-5.184,2.087-9.301,5.241-12.235,9.375-2.954,4.157-4.451,9.346-4.451,15.422s1.493,11.308,4.439,15.572c2.925,4.242,6.944,7.509,11.944,9.709,4.926,2.168,10.555,3.268,16.73,3.268,6.094,0,11.009-.913,14.609-2.712,3.606-1.803,6.315-3.94,8.049-6.352,1.289-1.799,2.217-3.322,2.811-4.619h.463c.365,3.233,1.924,5.899,4.647,7.941,2.99,2.242,6.798,3.378,11.318,3.378h15.881v-20.949h-8.447ZM225.38,324.834c0,5.057-1.664,8.981-5.087,11.994-3.44,3.028-7.98,4.563-13.496,4.563-4.088,0-7.198-.84-9.243-2.496-1.965-1.591-2.921-3.593-2.921-6.12,0-2.503.884-4.382,2.702-5.744,1.943-1.458,4.728-2.197,8.279-2.197h19.766Z" fill="#17181e"/>
    <polygon id="T" points="194.606 261.651 194.606 259.962 194.606 239.689 194.606 238 192.916 238 101.689 238 100 238 100 239.689 100 259.962 100 261.651 101.689 261.651 134.464 261.651 134.464 357.946 134.464 359.636 136.154 359.636 158.454 359.636 160.143 359.636 160.143 357.946 160.143 261.651 192.916 261.651 194.606 261.651" fill="#17181e"/>
  </g>
</svg>